<svg xmlns="http://www.w3.org/2000/svg" xmlns:xlink="http://www.w3.org/1999/xlink" version="1.1" id="Layer_1" x="0px" y="0px" viewBox="0 0 128 128" style="enable-background:new 0 0 128 128;" xml:space="preserve">
<style type="text/css">
	.st0{fill:#F0762B;}
	.st1{fill:#9BDDE9;}
</style>
<g id="XMLID_1_">
	<path id="XMLID_25_" class="st0" d="M46.3,22.7c1.2,2.8,3,5.2,9,5.1l45.9-0.3L77.9,53.1c-2.8,3-2.7,7.7,0.2,10.7l0,0   c3.2,3.2,8.3,3,11.3-0.3l32.5-37c2-2.3,2.7-5.8,1.4-8.8c-1.3-3-4.4-4.8-7.5-4.8l-58.5-0.7c-3.7-0.1-5.7,0.5-7.4,1.3   C46.4,15,44.7,19.2,46.3,22.7z"/>
	<path id="XMLID_27_" d="M60.9,50.9l1.7,1.7C62.1,51.9,61.5,51.3,60.9,50.9z"/>
	<path id="XMLID_29_" class="st0" d="M4.7,110.3c1.3,3,4.4,4.8,7.5,4.8l58.5,0.7c3.8,0.1,5.8-0.6,7.5-1.3c3.5-1.6,5.1-5.8,3.4-9.4   c-1.2-2.7-3-5-8.9-4.9l-46,0.3l22.6-24.8c2.8-3,2.7-7.7-0.2-10.6l0,0c-3.1-3.2-8.3-3-11.3,0.3L6.1,101.5   C4.1,103.8,3.4,107.3,4.7,110.3z"/>
	<path id="XMLID_33_" class="st1" d="M25.6,34.6c0.6,1.3,1.6,2.4,2.7,3.5l18.4,18.5l11,11.1l32.5,32.8c1.6,1.6,4.1,4.1,8.8,2   c2.7-1.2,5.2-5,3.5-8.8c-0.6-1.3-1.6-2.4-2.7-3.5L81.8,72l-11-11.1l-8.2-8.3l-1.7-1.7l-23-23.1c-1.6-1.6-4.1-4-8.7-2   C26.4,27,23.9,30.8,25.6,34.6z"/>
</g>
</svg>