<svg xmlns="http://www.w3.org/2000/svg" xmlns:xlink="http://www.w3.org/1999/xlink" version="1.1" id="Layer_1" x="0px" y="0px" viewBox="0 0 256 256" style="enable-background:new 0 0 256 256;" xml:space="preserve">
<style type="text/css">
	.st0{fill:#9BDDE9;}
	.st1{fill:#F0762B;}
</style>
<g id="XMLID_1_">
	<path id="XMLID_21_" class="st0" d="M136.1,146.5L136.1,146.5c-4.7,0-8.5-3.8-8.5-8.5v-38c0-4.7,3.8-8.5,8.5-8.5h0   c4.7,0,8.5,3.8,8.5,8.5v38C144.6,142.7,140.8,146.5,136.1,146.5z"/>
	<g id="XMLID_23_">
		<path id="XMLID_35_" class="st0" d="M213.8,144.9L213.8,144.9c-9.4,0-17-7.6-17-17V98.4c0-4.7,3.8-8.5,8.5-8.5h0    c4.7,0,8.5,3.8,8.5,8.5V144.9z"/>
		<path id="XMLID_34_" class="st0" d="M251.8,127.9v17h-38c-9.4,0-17-7.6-17-17v0H251.8z"/>
		<path id="XMLID_32_" class="st0" d="M251.8,144.9h-17V98.4c0-4.7,3.8-8.5,8.5-8.5h0c4.7,0,8.5,3.8,8.5,8.5V144.9z"/>
		<path id="XMLID_31_" class="st0" d="M234.8,183L234.8,183l0-55h17v38C251.8,175.4,244.2,183,234.8,183z"/>
		<path id="XMLID_30_" class="st0" d="M251.8,166L251.8,166c0,9.4-7.6,17-17,17h-12.6c-4.7,0-8.5-3.8-8.5-8.5v0    c0-4.7,3.8-8.5,8.5-8.5H251.8z"/>
	</g>
	<path id="XMLID_14_" d="M33.2,197.2h-8c-1.3,0-2.4-0.7-2.4-1.9c0-1.3,1.1-1.9,2.4-1.9h12.1c1.2,0,2.1,0.5,2.1,2.1   c0,0.6-0.2,1.2-0.6,1.6l-10.5,12.5h8.9c1.3,0,2.4,0.7,2.4,1.9c0,1.3-1.1,1.9-2.4,1.9H24.7c-1.7,0-2.7-0.6-2.7-2.3   c0-0.7,0.3-1.3,0.8-1.8L33.2,197.2z"/>
	<path id="XMLID_12_" d="M79,197.2h-4.3c-1.3,0-2.4-0.7-2.4-1.9c0-1.3,1.1-1.9,2.4-1.9h13.2c1.3,0,2.4,0.7,2.4,1.9   c0,1.3-1.1,1.9-2.4,1.9h-4.3v14.3c0,1.4-0.9,2.3-2.3,2.3c-1.4,0-2.3-0.9-2.3-2.3V197.2z"/>
	<path id="XMLID_6_" d="M123.1,196.1c0-2,1.1-2.7,2.7-2.7h10.8c1.3,0,2.3,0.4,2.3,1.8c0,1.5-1,1.8-2.3,1.8h-8.9v4.4h7.8   c1.2,0,2.1,0.3,2.1,1.8c0,1.4-0.9,1.8-2.1,1.8h-7.8v4.9h9.1c1.3,0,2.3,0.4,2.3,1.8c0,1.5-1,1.8-2.3,1.8h-11c-1.6,0-2.7-0.6-2.7-2.7   V196.1z"/>
	<path id="XMLID_5_" d="M181.7,192.9c5.3,0,8.1,3.3,8.1,5.3c0,1.3-0.7,2.1-2.1,2.1c-2.7,0-1.9-3.6-6.1-3.6c-2.9,0-5.3,2.5-5.3,6.8   c0,3.7,1.5,6.8,5.4,6.8c3.6,0,3.5-3.9,5.7-3.9c1.1,0,2.2,0.6,2.2,1.8c0,2.9-3.5,5.8-8,5.8c-6.3,0-10-3.6-10-10.5   C171.8,197.8,175.2,192.9,181.7,192.9z"/>
	<path id="XMLID_3_" d="M222.5,195.5c0-1.4,0.9-2.3,2.3-2.3c1.4,0,2.3,0.9,2.3,2.3v5.7h8.3v-5.7c0-1.4,0.9-2.3,2.3-2.3   s2.3,0.9,2.3,2.3v16.3c0,1.4-0.9,2.3-2.3,2.3s-2.3-0.9-2.3-2.3v-6.7h-8.3v6.7c0,1.4-0.9,2.3-2.3,2.3c-1.4,0-2.3-0.9-2.3-2.3V195.5z   "/>
	<path id="XMLID_25_" class="st1" d="M46.4,52.5c1.2,2.8,3,5.2,9,5.1l45.9-0.3L78,82.9c-2.8,3-2.7,7.7,0.2,10.7l0,0   c3.2,3.2,8.3,3,11.3-0.3l32.5-37c2-2.3,2.7-5.8,1.4-8.8c-1.3-3-4.4-4.8-7.5-4.8L57.5,42c-3.7-0.1-5.7,0.5-7.4,1.3   C46.5,44.8,44.9,48.9,46.4,52.5z"/>
	<path id="XMLID_27_" d="M60.9,80.9l1.7,1.7C62.1,81.9,61.5,81.3,60.9,80.9z"/>
	<path id="XMLID_29_" class="st1" d="M4.9,140c1.3,3,4.4,4.8,7.5,4.8l58.5,0.7c3.8,0.1,5.8-0.6,7.5-1.3c3.5-1.6,5.1-5.8,3.4-9.4   c-1.2-2.7-3-5-8.9-4.9l-46,0.3l22.6-24.8c2.8-3,2.7-7.7-0.2-10.6l0,0c-3.1-3.2-8.3-3-11.3,0.3L6.3,131.3   C4.3,133.6,3.5,137.1,4.9,140z"/>
	<path id="XMLID_33_" class="st0" d="M25.6,64.6c0.6,1.3,1.6,2.4,2.7,3.5l18.4,18.5l11,11.1l32.5,32.8c1.6,1.6,4.1,4.1,8.8,2   c2.7-1.2,5.2-5,3.5-8.8c-0.6-1.3-1.6-2.4-2.7-3.5l-18-18.1l-11-11.1l-8.2-8.3l-1.7-1.7l-23-23.1c-1.6-1.6-4.1-4-8.7-2   C26.4,57,23.9,60.8,25.6,64.6z"/>
	<path id="XMLID_16_" class="st1" d="M159,62.3h-20.8c-6.3,0-11.4-3.4-11.4-9.8s5.1-9.8,11.4-9.8h63.6c6.3,0,11.4,3.4,11.4,9.8   s-5.1,9.8-11.4,9.8h-20.8v73.1c0,7-4.3,11.7-11,11.7s-11-4.7-11-11.7V62.3z"/>
</g>
</svg>